<?xml version="1.0" standalone="no"?>
<!DOCTYPE svg PUBLIC "-//W3C//DTD SVG 20010904//EN"
 "http://www.w3.org/TR/2001/REC-SVG-20010904/DTD/svg10.dtd">
<svg version="1.0" xmlns="http://www.w3.org/2000/svg"
 width="1200.000000pt" height="1200.000000pt" viewBox="0 0 1200.000000 1200.000000"
 preserveAspectRatio="xMidYMid meet">
<metadata>
Created by potrace 1.14, written by Peter Selinger 2001-2017
</metadata>
<g transform="translate(0.000000,1200.000000) scale(0.100000,-0.100000)"
fill="#000000" stroke="none">
<path d="M10845 11936 c-33 -12 -78 -34 -100 -48 -54 -34 -651 -634 -681 -684
-85 -141 -79 -336 15 -464 47 -65 636 -646 681 -672 119 -70 272 -77 395 -19
64 29 97 59 397 359 293 293 330 334 357 392 59 128 58 246 -2 370 -27 57 -72
106 -357 390 -322 322 -344 341 -448 381 -60 22 -189 20 -257 -5z"/>
<path d="M885 11928 c-86 -20 -166 -67 -218 -128 -17 -21 -126 -204 -240 -406
-115 -203 -212 -376 -217 -384 -8 -14 -61 -108 -110 -195 -45 -80 -59 -140
-57 -238 2 -81 6 -100 35 -160 60 -123 169 -208 300 -236 71 -15 1145 -14
1217 1 109 22 225 107 278 203 38 67 54 130 55 208 0 116 -5 128 -247 554 -47
81 -98 173 -114 203 -16 30 -33 60 -37 65 -4 6 -19 31 -33 57 -174 317 -219
374 -330 427 -100 48 -172 55 -282 29z"/>
<path d="M5457 11064 c-1 -1 -47 -4 -102 -8 -166 -11 -266 -30 -430 -83 -321
-103 -610 -297 -836 -560 -43 -50 -46 -51 -109 -58 -136 -14 -270 -78 -366
-175 -115 -117 -143 -182 -201 -465 -69 -338 -66 -444 17 -610 46 -92 124
-179 214 -237 l59 -38 33 -113 c86 -297 233 -546 459 -773 136 -137 273 -237
450 -330 l100 -53 -30 -11 c-288 -109 -524 -242 -760 -425 -149 -116 -225
-191 -439 -435 -19 -21 -62 -78 -204 -265 -29 -39 -139 -207 -190 -290 -155
-256 -326 -611 -371 -775 -26 -92 -24 -254 4 -345 55 -183 177 -331 340 -413
102 -51 155 -63 279 -67 241 -7 441 104 587 324 l49 74 0 -39 c-2 -157 10
-1074 13 -1094 3 -14 8 -50 12 -80 13 -111 73 -314 126 -425 22 -47 25 -61 15
-67 -29 -16 -665 -166 -858 -202 -13 -2 -75 -14 -138 -26 -63 -12 -124 -23
-135 -25 -11 -2 -63 -10 -115 -18 -52 -9 -113 -19 -135 -22 -22 -3 -51 -7 -65
-10 -29 -4 -114 -16 -150 -20 -79 -9 -141 -16 -185 -21 -27 -2 -66 -7 -85 -9
-216 -27 -847 -27 -988 0 -9 1 -39 6 -67 9 -84 11 -250 54 -333 86 -173 67
-291 175 -318 291 -12 52 -4 167 17 230 38 115 128 283 202 375 183 228 384
436 607 624 36 30 67 57 70 60 18 18 176 143 290 228 74 56 140 105 145 109
35 28 231 163 344 238 73 49 140 99 148 112 24 37 27 103 6 143 -22 43 -90 80
-135 74 -38 -4 -100 -42 -313 -188 -661 -452 -1188 -930 -1442 -1307 -362
-536 -289 -974 202 -1221 64 -33 222 -91 277 -102 139 -29 222 -45 265 -50 29
-3 74 -8 100 -12 112 -12 458 -18 618 -9 98 5 235 15 270 19 17 2 62 7 100 10
39 4 84 9 100 11 17 2 53 7 80 10 28 3 82 11 120 16 39 6 86 12 105 15 19 2
46 6 60 9 14 3 39 7 55 9 25 4 119 20 240 41 17 3 77 15 134 26 57 12 116 23
130 26 14 2 46 9 71 14 25 6 52 12 60 14 8 1 80 17 160 35 80 17 156 34 170
36 14 3 130 32 259 65 l234 60 46 -53 c187 -215 1979 -2020 2019 -2032 12 -4
22 -11 22 -15 0 -12 158 -87 220 -104 82 -24 116 -29 214 -31 358 -11 678 221
785 569 55 177 42 395 -33 559 -14 30 -55 103 -91 161 -51 83 -61 105 -47 106
118 6 151 12 233 39 190 64 362 244 416 434 18 65 25 235 12 306 -28 145 -77
243 -269 530 -56 84 -249 356 -309 435 -80 107 -78 104 -116 150 -26 31 -32
55 -15 55 32 0 1168 546 1270 610 8 5 105 58 215 118 110 60 259 143 330 184
72 41 141 81 155 89 13 8 29 17 34 22 6 4 70 42 141 85 302 182 786 509 975
658 8 7 74 58 145 115 72 56 141 112 155 125 14 12 70 62 125 110 181 160 360
345 486 504 168 211 268 394 320 585 29 104 31 271 4 360 -54 186 -189 334
-394 434 -74 36 -245 96 -304 105 -15 3 -35 7 -45 10 -9 3 -33 7 -52 10 -19 3
-44 8 -55 10 -12 2 -48 7 -80 11 -33 4 -73 9 -90 11 -169 22 -642 21 -855 -1
-19 -2 -71 -6 -115 -10 -44 -3 -87 -8 -95 -10 -8 -2 -46 -7 -85 -10 -38 -3
-77 -8 -85 -10 -8 -2 -42 -6 -75 -10 -33 -3 -98 -12 -145 -20 -47 -8 -105 -17
-130 -20 -75 -10 -339 -59 -550 -101 -24 -5 -284 -63 -305 -68 -5 -2 -28 -6
-50 -10 -22 -4 -62 -14 -90 -22 -27 -8 -104 -27 -170 -43 -282 -69 -568 -149
-936 -262 -106 -33 -145 -63 -158 -120 -11 -53 3 -100 43 -136 52 -48 91 -48
245 1 295 95 1070 305 1224 331 17 4 50 10 72 16 22 5 51 12 65 15 14 2 77 16
140 29 105 22 387 74 485 89 22 4 67 11 100 16 33 5 83 12 110 16 28 3 59 8
70 10 10 2 49 6 85 10 36 3 72 7 80 9 8 1 49 6 90 10 41 4 86 9 100 11 86 10
317 19 515 19 298 0 433 -10 610 -46 290 -58 464 -153 534 -291 29 -58 34 -77
34 -140 0 -40 -7 -102 -17 -138 -26 -101 -116 -276 -190 -371 -12 -15 -30 -39
-41 -55 -79 -110 -352 -400 -470 -498 -16 -14 -50 -44 -75 -67 -61 -56 -416
-337 -537 -425 -715 -519 -1700 -1072 -2755 -1545 -109 -49 -199 -89 -202 -89
-6 0 -188 232 -184 235 2 2 33 20 70 42 187 106 310 271 353 473 23 107 11
364 -31 630 -8 52 -17 111 -20 130 -33 213 -135 549 -231 760 -202 447 -511
773 -895 944 l-87 39 92 46 c344 173 626 458 803 810 52 104 56 109 91 116 77
14 140 59 185 130 24 38 31 60 43 126 3 15 14 71 26 125 11 55 22 123 24 151
7 113 -54 223 -147 265 -16 7 -28 15 -29 18 0 3 -2 12 -3 20 -2 8 -6 44 -10
80 -22 207 -103 466 -203 650 -249 456 -655 773 -1158 905 -49 13 -108 26
-130 30 -23 3 -52 7 -65 10 -22 4 -78 9 -243 19 -20 1 -38 2 -40 0z m-1327
-998 c14 -3 41 -9 60 -12 43 -7 417 -80 485 -94 50 -11 338 -66 385 -75 34 -6
119 -23 150 -30 14 -3 41 -8 60 -11 19 -3 41 -7 49 -10 8 -2 30 -7 50 -10 20
-3 79 -14 131 -24 52 -11 113 -22 135 -25 22 -4 48 -8 57 -11 16 -5 38 -9 84
-18 41 -8 119 -55 156 -93 81 -85 106 -178 83 -308 -7 -38 -16 -86 -19 -105
-4 -19 -13 -67 -21 -107 -8 -39 -18 -88 -21 -108 -19 -122 -85 -211 -194 -263
-77 -37 -161 -35 -370 7 -91 18 -175 35 -188 37 -13 3 -89 18 -170 34 -81 16
-158 31 -172 34 -14 2 -83 16 -155 30 -241 46 -660 128 -680 132 -11 2 -33 7
-50 10 -125 22 -181 47 -239 107 -81 83 -109 200 -80 335 7 35 15 75 17 90 15
91 50 253 63 287 59 155 223 239 394 201z m2465 -860 c154 -30 291 -57 305
-60 86 -16 287 -57 297 -61 8 -3 5 -34 -12 -112 -13 -59 -24 -109 -24 -110 -1
-2 -1 -9 -1 -15 -1 -36 -15 -39 -86 -24 -38 9 -80 17 -94 20 -14 2 -95 18
-180 34 -180 36 -165 33 -340 66 -74 14 -156 31 -181 37 l-47 10 9 37 c4 20
10 50 13 66 3 16 11 55 17 85 6 31 13 63 14 71 2 8 4 16 4 17 1 1 7 0 14 -2 6
-3 138 -30 292 -59z m-2386 -3212 c35 -7 78 -46 93 -84 6 -14 10 -118 9 -244
-1 -238 -5 -256 -61 -297 -64 -46 -163 -22 -199 50 -19 37 -21 58 -21 253 0
239 5 263 69 305 35 24 57 27 110 17z m2154 -19 c31 -20 63 -84 71 -140 2 -22
7 -47 10 -55 17 -54 25 -322 16 -560 -10 -262 101 -420 307 -437 80 -6 113
-21 144 -64 41 -58 32 -103 -58 -289 -158 -323 -172 -354 -170 -357 2 -1 68
24 147 57 79 33 144 60 146 60 10 0 174 -223 168 -229 -5 -4 -34 -18 -64 -30
-30 -13 -68 -29 -85 -36 -16 -8 -59 -26 -95 -40 -36 -14 -78 -32 -95 -39 -16
-7 -91 -37 -165 -66 -74 -29 -136 -54 -138 -55 -1 -1 -5 -13 -7 -26 -7 -35 10
-70 94 -194 41 -60 124 -184 186 -275 61 -91 168 -249 238 -351 76 -113 128
-200 132 -222 16 -81 -44 -156 -129 -162 -67 -5 -97 18 -174 131 -7 11 -52 78
-100 149 -49 72 -160 236 -247 365 -238 352 -242 359 -262 420 l-17 56 -121
-44 c-66 -24 -129 -48 -140 -52 -48 -19 -114 -43 -165 -60 -30 -10 -149 -50
-265 -90 -115 -40 -214 -73 -220 -74 -5 -1 -53 -16 -105 -33 -95 -32 -280 -89
-441 -137 -48 -14 -94 -26 -102 -26 -16 0 -108 108 -156 185 l-31 49 82 24
c106 29 246 71 278 82 14 5 59 18 100 31 95 28 538 173 695 228 169 60 474
171 510 186 17 7 59 23 94 36 l64 23 80 165 c43 91 102 213 129 271 28 58 59
122 70 143 l19 38 -38 15 c-169 71 -303 236 -352 434 -23 93 -27 177 -18 425
5 142 -5 280 -31 406 -5 25 -7 56 -5 68 4 28 28 74 45 88 44 35 125 39 171 8z"/>
<path d="M10920 1862 c-352 -50 -655 -314 -754 -656 -71 -243 -45 -505 70
-708 19 -33 34 -64 34 -68 0 -5 3 -10 8 -12 4 -1 26 -28 50 -59 119 -157 299
-275 502 -329 102 -27 298 -35 400 -15 253 48 479 199 615 410 99 154 144 292
151 467 11 276 -80 511 -271 704 -217 218 -497 311 -805 266z"/>
<path d="M420 1779 c-165 -11 -274 -70 -351 -191 -67 -104 -67 -108 -68 -674
-1 -546 1 -580 48 -669 40 -77 138 -170 218 -208 l68 -32 541 -3 c472 -2 547
0 595 14 143 42 246 143 289 283 19 61 20 93 21 586 0 328 -4 532 -10 548 -6
15 -8 27 -6 27 3 0 -7 24 -21 53 -79 156 -211 253 -359 264 -107 7 -858 9
-965 2z"/>
</g>
</svg>
